#!OML:ASF I:\Actors\actors\Patient Classification 2\Patient 1\Session 1\actor1.ASF
:FULLY-SPECIFIED
:DEGREES
693
root -0.220479 18.6879 5.90743 2.64197 -1.07261 -0.139607
lowerback 6.68112 2.25166 -0.800015
upperback -1.66135 2.92965 -0.123653
thorax -5.50823 1.47118 -0.0127124
lowerneck -10.9376 -4.41415 -3.32723
upperneck 25.0908 -6.15828 2.50645
head 9.94397 -2.88073 0.713264
rclavicle -1.07266e-014 -2.05245e-014
rhumerus -38.2335 11.1752 -82.1762
rradius 60.5539
rwrist 20.7789
rhand -16.4657 321.204
rfingers 7.12502
rthumb 9.75086 -68.55
lclavicle -1.07266e-014 -2.05245e-014
lhumerus -39.9218 -7.67026 83.543
lradius 57.5109
lwrist 8.40453
lhand -7.28594 -14.5645
lfingers 7.12502
lthumb 18.5958 14.5667
rfemur 5.91401 10.5442 12.6992
rtibia 9.54166e-015
rfoot -21.0801 -17.378
rtoes -10.6389
lfemur -5.60973 -4.02965 -15.3024
ltibia 22.9382
lfoot -21.6717 10.3129
ltoes -55.6529
694
root -0.236501 18.6841 5.93202 2.56032 -1.38914 -0.135359
lowerback 6.19942 2.23214 -0.976564
upperback -1.68639 2.88752 -0.249787
thorax -5.26256 1.45485 -0.0200683
lowerneck -11.1391 -4.23812 -3.07757
upperneck 24.7711 -5.91362 2.37047
head 9.84623 -2.76118 0.651192
rclavicle -1.27098e-014 2.78299e-015
rhumerus -38.8708 9.66844 -82.2383
rradius 58.2085
rwrist 20.5137
rhand -14.4094 320.623
rfingers 7.12502
rthumb 11.7343 -69.0283
lclavicle -1.27098e-014 2.78299e-015
lhumerus -40.6601 -4.94374 82.884
lradius 53.3684
lwrist 6.80407
lhand -6.88022 -15.6149
lfingers 7.12502
lthumb 18.986 13.4785
rfemur 6.02209 10.8674 12.7669
rtibia -1.43125e-014
rfoot -21.1712 -17.3307
rtoes -10.4811
lfemur -5.27489 -3.97318 -15.2951
ltibia 22.7758
lfoot -21.8257 10.4805
ltoes -55.5487
695
root -0.252988 18.6817 5.95599 2.492 -1.70908 -0.143255
lowerback 5.77173 2.22956 -1.12517
upperback -1.73641 2.87251 -0.359738
thorax -5.07355 1.45098 -0.0323054
lowerneck -11.3613 -4.06789 -2.79269
upperneck 24.5057 -5.67019 2.16626
head 9.77017 -2.64576 0.558864
rclavicle -7.87063e-015 6.95746e-015
rhumerus -39.5725 7.83173 -82.0984
rradius 55.8664
rwrist 20.1336
rhand -13.9069 321.046
rfingers 7.12502
rthumb 12.2188 -68.5769
lclavicle -7.87063e-015 6.95746e-015
lhumerus -41.4247 -1.85444 81.921
lradius 49.8842
lwrist 4.7066
lhand -6.0871 -14.4622
lfingers 7.12502
lthumb 19.7486 14.5546
rfemur 6.10519 11.193 12.8442
rtibia -7.95139e-015
rfoot -21.2132 -17.3106
rtoes -10.437
lfemur -4.95429 -4.04932 -15.297
ltibia 22.6285
lfoot -22.0121 10.8218
ltoes -55.5512
696
root -0.268572 18.6798 5.97958 2.49459 -1.97188 -0.164017
lowerback 5.3772 2.19746 -1.30009
upperback -1.84767 2.81914 -0.423155
thorax -4.97058 1.42976 0.0188482
lowerneck -11.4783 -3.89558 -2.60128
upperneck 24.1828 -5.4279 2.04826
head 9.66089 -2.53156 0.514709
rclavicle 2.88859e-015 -3.97569e-016
rhumerus -40.3456 5.85312 -81.704
rradius 53.5617
rwrist 19.7705
rhand -13.2449 321.522
rfingers 7.12502
rthumb 12.8571 -68.062
lclavicle 2.88859e-015 -3.97569e-016
lhumerus -42.3626 1.65243 80.5401
lradius 46.4924
lwrist 1.75787
lhand -5.76639 -14.0424
lfingers 7.12502
lthumb 20.0569 14.9424
rfemur 6.11831 11.4536 12.9188
rtibia 1.27222e-014
rfoot -21.2306 -17.3173
rtoes -10.6291
lfemur -4.73278 -4.20221 -15.2901
ltibia 22.4936
lfoot -22.1741 11.2201
ltoes -55.6344
697
root -0.285039 18.6766 6.00389 2.49371 -2.22934 -0.204591
lowerback 5.03686 2.16722 -1.49169
upperback -1.97981 2.76866 -0.456927
thorax -4.92229 1.41103 0.106371
lowerneck -11.5543 -3.74335 -2.45685
upperneck 23.8707 -5.21912 1.98222
head 9.55286 -2.4316 0.493063
rclavicle 2.3292e-014 -4.96962e-015
rhumerus -41.2825 3.88082 -81.1792
rradius 51.5135
rwrist 19.0835
rhand -12.4742 321.415
rfingers 7.12502
rthumb 13.6 -68.1206
lclavicle 2.3292e-014 -4.96962e-015
lhumerus -43.5749 5.3583 78.7467
lradius 43.3799
lwrist -1.36855
lhand -5.97677 -14.1787
lfingers 7.12502
lthumb 19.8547 14.8271
rfemur 6.14602 11.7103 13.0201
rtibia -6.36111e-015
rfoot -21.2697 -17.2888
rtoes -10.8047
lfemur -4.49841 -4.24772 -15.2411
ltibia 22.3236
lfoot -22.2854 11.4999
ltoes -55.6691
698
root -0.303516 18.6729 6.02866 2.44827 -2.5005 -0.246998
lowerback 4.78917 2.16684 -1.66049
upperback -2.11774 2.75835 -0.498774
thorax -4.93162 1.41149 0.164814
lowerneck -11.671 -3.63549 -2.26112
upperneck 23.6495 -5.06468 1.82869
head 9.48291 -2.36064 0.424893
rclavicle -4.63681e-014 -3.37934e-015
rhumerus -42.4223 1.80952 -80.5345
rradius 49.7438
rwrist 18.1194
rhand -11.6758 320.911
rfingers 7.12502
rthumb 14.3694 -68.5716
lclavicle -4.63681e-014 -3.37934e-015
lhumerus -45.0983 8.99031 76.6186
lradius 40.8461
lwrist -4.08118
lhand -6.37529 -14.3622
lfingers 7.12502
lthumb 19.4716 14.6828
rfemur 6.22552 11.9859 13.1371
rtibia -4.77083e-015
rfoot -21.3267 -17.2128
rtoes -10.8106
lfemur -4.2011 -4.30738 -15.1848
ltibia 22.1317
lfoot -22.4151 11.7599
ltoes -55.6527
699
root -0.343437 18.6659 6.06782 2.22847 -2.16181 -0.220657
lowerback 4.51015 1.98578 -2.17289
upperback -2.13434 2.49038 -0.467541
thorax -4.81003 1.29521 0.517779
lowerneck -11.8016 -3.52991 -2.10977
upperneck 23.3866 -4.92468 1.76251
head 9.40577 -2.29088 0.392569
rclavicle 5.48308e-016 7.95139e-016
rhumerus -43.559 -0.447939 -79.7229
rradius 48.0854
rwrist 17.183
rhand -11.0608 320.296
rfingers 7.12502
rthumb 14.9619 -69.1434
lclavicle 5.48308e-016 7.95139e-016
lhumerus -46.8702 12.2246 74.413
lradius 39.0435
lwrist -5.99573
lhand -6.8169 -14.5666
lfingers 7.12502
lthumb 19.0469 14.5208
rfemur 6.78404 11.6688 13.3797
rtibia 4.77083e-015
rfoot -21.626 -16.941
rtoes -10.4208
lfemur -3.74726 -4.3916 -15.029
ltibia 21.9314
lfoot -22.3869 11.4478
ltoes -55.6925
700
root -0.366526 18.6607 6.0956 2.07828 -2.15948 -0.205581
lowerback 4.31776 1.90747 -2.47425
upperback -2.17395 2.37159 -0.464863
thorax -4.75199 1.24584 0.705258
lowerneck -11.8804 -3.41022 -2.07339
upperneck 22.9887 -4.78433 1.88891
head 9.28068 -2.21151 0.447211
rclavicle -4.00209e-014 1.55052e-014
rhumerus -44.6733 -2.73096 -78.7712
rradius 46.7505
rwrist 15.8945
rhand -10.3441 319.512
rfingers 7.12502
rthumb 15.6523 -69.8746
lclavicle -4.00209e-014 1.55052e-014
lhumerus -48.8229 15.1645 72.0701
lradius 37.5347
lwrist -7.28379
lhand -7.23143 -16.1722
lfingers 7.12502
lthumb 18.6482 12.9539
rfemur 7.09546 11.6791 13.5118
rtibia -1.11319e-014
rfoot -21.7484 -16.8753
rtoes -10.836
lfemur -3.36596 -4.52509 -14.9948
ltibia 21.7531
lfoot -22.4835 11.5113
ltoes -55.6537
701
root -0.379619 18.6568 6.1173 1.9739 -2.34571 -0.215233
lowerback 4.18556 1.89924 -2.60457
upperback -2.25333 2.35536 -0.465298
thorax -4.76483 1.24274 0.781772
lowerneck -11.8495 -3.31955 -2.10269
upperneck 22.4892 -4.66904 2.01704
head 9.10271 -2.15111 0.512504
rclavicle -1.39677e-014 6.75868e-015
rhumerus -45.9455 -4.80696 -77.7141
rradius 45.8096
rwrist 14.2268
rhand -9.32827 318.442
rfingers 7.12502
rthumb 16.6304 -70.8659
lclavicle -1.39677e-014 6.75868e-015
lhumerus -51.0236 17.8494 69.4053
lradius 35.941
lwrist -8.16834
lhand -7.4369 -20.5653
lfingers 7.12502
lthumb 18.4506 8.57966
rfemur 7.25116 11.8741 13.5949
rtibia -1.43125e-014
rfoot -21.8038 -16.877
rtoes -11.1325
lfemur -3.04789 -4.53065 -14.9913
ltibia 21.6158
lfoot -22.5661 11.6815
ltoes -55.6734
702
root -0.383603 18.6539 6.13456 1.95855 -2.66904 -0.233707
lowerback 4.06557 1.95065 -2.59585
upperback -2.39165 2.42567 -0.479048
thorax -4.8425 1.27902 0.757681
lowerneck -11.783 -3.24999 -2.13515
upperneck 21.9898 -4.55876 2.04402
head 8.91681 -2.10416 0.543408
rclavicle -3.00538e-014 -1.19271e-015
rhumerus -47.4342 -6.77407 -76.5651
rradius 44.8841
rwrist 13.288
rhand -8.68992 317.465
rfingers 7.12502
rthumb 17.2449 -71.79
lclavicle -3.00538e-014 -1.19271e-015
lhumerus -53.021 18.4845 68.6719
lradius 36.262
lwrist -7.04548
lhand -8.26671 -17.9222
lfingers 7.12502
lthumb 17.6522 11.2965
rfemur 7.22829 12.1976 13.6068
rtibia 3.33958e-014
rfoot -21.8342 -16.8504
rtoes -10.9456
lfemur -2.85261 -4.62679 -15.0472
ltibia 21.5526
lfoot -22.7736 12.0711
ltoes -55.6914
